<svg width="105" height="30" viewBox="0 0 105 30" fill="none" xmlns="http://www.w3.org/2000/svg">
<path fill-rule="evenodd" clip-rule="evenodd" d="M28.3141 20.7804C17.8707 15.1719 6.98001 8.06348 0.134232 3.22492L1.86577 0.77507C8.64329 5.56538 19.4276 12.6027 29.7335 18.1374C34.8895 20.9064 39.8866 23.278 44.1808 24.8074C46.3277 25.572 48.2669 26.1145 49.9412 26.3964C51.6318 26.6811 52.9563 26.6832 53.9205 26.4518C56.2503 25.8927 58.5405 25.2482 60.8187 24.6072C61.539 24.4045 62.258 24.2022 62.9767 24.003C65.9438 23.1806 68.89 22.4165 71.7417 21.9646C77.4554 21.0591 83.0188 21.3716 87.8554 25.1531C90.7763 27.4368 93.8257 27.125 96.7452 26.2657C97.4765 26.0505 98.1806 25.8063 98.8709 25.5644L99.0087 25.5161C99.6387 25.2951 100.275 25.0721 100.863 24.9C101.487 24.7175 102.156 24.5615 102.802 24.5402C103.459 24.5186 104.222 24.633 104.892 25.1289L103.108 27.5406C103.119 27.5485 103.127 27.5532 103.132 27.5557C103.114 27.5497 103.048 27.5338 102.9 27.5386C102.633 27.5474 102.25 27.6199 101.705 27.7794C101.196 27.9283 100.632 28.1261 99.9755 28.3562L99.8631 28.3956C99.174 28.6371 98.4049 28.9045 97.5922 29.1437C94.3353 30.1022 90.073 30.695 86.0076 27.5165C82.1113 24.4702 77.5447 24.0824 72.2112 24.9276C69.5394 25.3511 66.7328 26.0751 63.7779 26.894C63.0841 27.0863 62.3812 27.2841 61.6707 27.4841C59.3807 28.1285 57.0125 28.7949 54.6206 29.369C53.1046 29.7328 51.3301 29.6726 49.443 29.3548C47.5395 29.0342 45.4223 28.4341 43.1743 27.6335C38.6789 26.0324 33.5328 23.583 28.3141 20.7804ZM103.137 27.5578C103.137 27.558 103.136 27.5574 103.132 27.5557C103.136 27.5569 103.137 27.5577 103.137 27.5578Z" fill="#7EC6F4"/>
</svg>
